<svg width="546" height="572" version="1.1" xmlns="http://www.w3.org/2000/svg" desc="Created with imagetracer.js version 1.2.6" ><path fill="rgb(0,0,0)" stroke="rgb(0,0,0)" stroke-width="1" opacity="1" d="M 0 0 L 9 0.5 L 2 5.5 L 0.5 9 L 0 0 Z " /><path fill="rgb(0,0,0)" stroke="rgb(0,0,0)" stroke-width="1" opacity="1" d="M 537.5 0 L 546 0 L 546 8.5 L 545 8.5 L 540.5 2 L 537.5 1 L 537.5 0 Z " /><path fill="rgb(0,0,0)" stroke="rgb(0,0,0)" stroke-width="1" opacity="1" d="M 11.5 2 L 534.5 2 L 542 7.5 L 544 12.5 L 544 559.5 L 542 564.5 L 538.5 568 L 534.5 570 L 11.5 570 L 4 564.5 L 2 559.5 L 2 12.5 L 4 7.5 L 7.5 4 L 11.5 2 Z " /><path fill="rgb(0,0,0)" stroke="rgb(0,0,0)" stroke-width="1" opacity="1" d="M 0.5 563 L 5.5 570 L 9 571.5 L 0 572 L 0.5 563 Z " /><path fill="rgb(0,0,0)" stroke="rgb(0,0,0)" stroke-width="1" opacity="1" d="M 545.5 563 L 546 572 L 537 571.5 L 544 566.5 L 545.5 563 Z " /><path fill="rgb(127,127,127)" stroke="rgb(127,127,127)" stroke-width="1" opacity="1" d="M 9.5 0 L 536.5 0 L 544 5.5 L 546 9.5 L 546 562.5 L 540.5 570 L 536.5 572 L 9.5 572 L 2 566.5 L 0 562.5 L 0 9.5 L 5.5 2 L 9.5 0 Z M 12 2 L 8 4 L 4 8 L 2 13 L 2 560 L 4 565 L 12 570 L 535 570 L 539 568 L 542 565 L 544 560 L 544 13 L 542 8 L 535 2 L 12 2 Z " /></svg>